<svg id="Layer_1" data-name="Layer 1" xmlns="http://www.w3.org/2000/svg" viewBox="0 0 777 651"><defs><style>.cls-1{fill:#4169e1;}</style></defs><title>board</title><path class="cls-1" d="M10,74V725H787V74ZM720,87a46,46,0,1,1-46,46A46,46,0,0,1,720,87Zm-.42,106.48a46,46,0,1,1-46,46A46,46,0,0,1,719.58,193.48Zm-.08,211.76a46,46,0,1,1-46,46A46,46,0,0,1,719.5,405.24ZM615.72,87a46,46,0,1,1-46,46A46,46,0,0,1,615.72,87Zm-.42,106.48a46,46,0,1,1-46,46A46,46,0,0,1,615.3,193.48Zm-.08,211.76a46,46,0,1,1-46,46A46,46,0,0,1,615.22,405.24ZM508.55,87a46,46,0,1,1-46,46A46,46,0,0,1,508.55,87Zm-.42,106.48a46,46,0,1,1-46,46A46,46,0,0,1,508.13,193.48Zm-.08,211.76a46,46,0,1,1-46,46A46,46,0,0,1,508.05,405.24ZM399.47,87a46,46,0,1,1-46,46A46,46,0,0,1,399.47,87Zm-.41,106.48a46,46,0,1,1-46,46A46,46,0,0,1,399.06,193.48ZM399,405.24a46,46,0,1,1-46,46A46,46,0,0,1,399,405.24ZM293.25,87a46,46,0,1,1-46,46A46,46,0,0,1,293.25,87Zm-.42,106.48a46,46,0,1,1-46,46A46,46,0,0,1,292.83,193.48Zm-.08,211.76a46,46,0,1,1-46,46A46,46,0,0,1,292.75,405.24ZM186.07,87a46,46,0,1,1-46,46A46,46,0,0,1,186.07,87Zm-.42,106.48a46,46,0,1,1-46,46A46,46,0,0,1,185.65,193.48Zm-.08,211.76a46,46,0,1,1-46,46A46,46,0,0,1,185.57,405.24ZM77,87a46,46,0,1,1-46,46A46,46,0,0,1,77,87Zm-.42,106.48a46,46,0,1,1-46,46A46,46,0,0,1,76.58,193.48ZM76.5,405.24a46,46,0,1,1-46,46A46,46,0,0,1,76.5,405.24Zm-.42,106.47a46,46,0,1,1-46,46A46,46,0,0,1,76.08,511.71Zm1,198a46,46,0,1,1,46-46A46,46,0,0,1,77.08,709.71Zm.5-318.23a46,46,0,1,1,46-46A46,46,0,0,1,77.58,391.48ZM185.15,511.71a46,46,0,1,1-46,46A46,46,0,0,1,185.15,511.71Zm1,198a46,46,0,1,1,46-46A46,46,0,0,1,186.15,709.71Zm.5-318.23a46,46,0,1,1,46-46A46,46,0,0,1,186.65,391.48ZM292.33,511.71a46,46,0,1,1-46,46A46,46,0,0,1,292.33,511.71Zm1,198a46,46,0,1,1,46-46A46,46,0,0,1,293.33,709.71Zm.5-318.23a46,46,0,1,1,46-46A46,46,0,0,1,293.83,391.48ZM398.56,511.71a46,46,0,1,1-46,46A46,46,0,0,1,398.56,511.71Zm1,198a46,46,0,1,1,46-46A46,46,0,0,1,399.56,709.71Zm.5-318.23a46,46,0,1,1,46-46A46,46,0,0,1,400.06,391.48ZM507.63,511.71a46,46,0,1,1-46,46A46,46,0,0,1,507.63,511.71Zm1,198a46,46,0,1,1,46-46A46,46,0,0,1,508.63,709.71Zm.5-318.23a46,46,0,1,1,46-46A46,46,0,0,1,509.13,391.48ZM614.8,511.71a46,46,0,1,1-46,46A46,46,0,0,1,614.8,511.71Zm1,198a46,46,0,1,1,46-46A46,46,0,0,1,615.8,709.71Zm.5-318.23a46,46,0,1,1,46-46A46,46,0,0,1,616.3,391.48ZM719.08,511.71a46,46,0,1,1-46,46A46,46,0,0,1,719.08,511.71Zm1,198a46,46,0,1,1,46-46A46,46,0,0,1,720.08,709.71Zm.5-318.23a46,46,0,1,1,46-46A46,46,0,0,1,720.58,391.48Z" transform="translate(-10 -74)"/></svg>